<svg xmlns="http://www.w3.org/2000/svg" viewBox="0 0 1024 1024" width="1024" height="1024">
  <defs>
    <radialGradient id="bgGrad" cx="50%" cy="50%" r="50%">
      <stop offset="0%" stop-color="#1A0A0A"/>
      <stop offset="100%" stop-color="#000000"/>
    </radialGradient>
  </defs>
  
  <circle cx="512" cy="512" r="480" fill="url(#bgGrad)"/>
  
  <!-- 嘴唇组 - 缩放并居中到 1024x1024 -->
  <g transform="translate(180, 235) scale(0.65)">
    
    <!-- 上唇 - 顶部保持M形，底部按正弦变化 -->
    <g fill="#EE2222">
      <!-- 左嘴角 → 左唇峰 - 顶部不变，底部正弦变化 -->
      <rect x="18"  y="452" width="14" height="16"  rx="7"/>
      <rect x="40"  y="438" width="15" height="30"  rx="7.5"/>
      <rect x="63"  y="420" width="16" height="48"  rx="8"/>
      <rect x="87"  y="398" width="15" height="70"  rx="7.5"/>
      <rect x="110" y="376" width="16" height="92"  rx="8"/>
      <rect x="134" y="352" width="17" height="116" rx="8.5"/>
      <rect x="159" y="330" width="16" height="138" rx="8"/>
      <rect x="183" y="308" width="17" height="160" rx="8.5"/>
      <rect x="208" y="288" width="16" height="180" rx="8"/>
      <rect x="232" y="268" width="17" height="200" rx="8.5"/>
      <rect x="257" y="250" width="16" height="218" rx="8"/>
      <rect x="281" y="232" width="17" height="236" rx="8.5"/>
      <rect x="306" y="216" width="16" height="252" rx="8"/>
      <rect x="330" y="202" width="17" height="266" rx="8.5"/>
      <rect x="355" y="188" width="16" height="280" rx="8"/>
      <!-- 左唇峰（高） -->
      <rect x="379" y="168" width="17" height="300" rx="8.5"/>
      <rect x="404" y="158" width="16" height="310" rx="8"/>
      <!-- 唇谷（低）- 底部按正弦缩短，更靠左更明显 -->
      <rect x="428" y="178" width="17" height="290" rx="8.5"/>
      <rect x="453" y="196" width="16" height="272" rx="8"/>
      <rect x="477" y="188" width="17" height="280" rx="8.5"/>
      <!-- 右唇峰（高） -->
      <rect x="502" y="160" width="16" height="308" rx="8"/>
      <rect x="526" y="148" width="17" height="320" rx="8.5"/>
      <rect x="551" y="158" width="16" height="310" rx="8"/>
      <!-- 右唇峰 → 右嘴角 - 底部正弦变化 -->
      <rect x="575" y="172" width="17" height="296" rx="8.5"/>
      <rect x="600" y="188" width="16" height="280" rx="8"/>
      <rect x="624" y="204" width="17" height="264" rx="8.5"/>
      <rect x="649" y="220" width="16" height="248" rx="8"/>
      <rect x="673" y="238" width="17" height="230" rx="8.5"/>
      <rect x="698" y="256" width="16" height="212" rx="8"/>
      <rect x="722" y="276" width="17" height="192" rx="8.5"/>
      <rect x="747" y="296" width="16" height="172" rx="8"/>
      <rect x="771" y="318" width="17" height="150" rx="8.5"/>
      <rect x="796" y="340" width="16" height="128" rx="8"/>
      <rect x="820" y="362" width="17" height="106" rx="8.5"/>
      <rect x="845" y="386" width="16" height="82"  rx="8"/>
      <rect x="869" y="408" width="17" height="60"  rx="8.5"/>
      <rect x="894" y="430" width="16" height="38"  rx="8"/>
      <rect x="918" y="448" width="14" height="20"  rx="7"/>
    </g>

    <!-- 下唇 - 水面倒影 - 顶部正弦变化，底部U形 -->
    <g fill="#AA2222" opacity="0.5">
      <rect x="18"  y="482" width="14" height="18"  rx="7"/>
      <rect x="40"  y="482" width="15" height="34"  rx="7.5"/>
      <rect x="63"  y="482" width="16" height="56"  rx="8"/>
      <rect x="87"  y="482" width="15" height="82"  rx="7.5"/>
      <rect x="110" y="482" width="16" height="110" rx="8"/>
      <rect x="134" y="482" width="17" height="140" rx="8.5"/>
      <rect x="159" y="482" width="16" height="168" rx="8"/>
      <rect x="183" y="482" width="17" height="196" rx="8.5"/>
      <rect x="208" y="482" width="16" height="222" rx="8"/>
      <rect x="232" y="482" width="17" height="246" rx="8.5"/>
      <rect x="257" y="482" width="16" height="266" rx="8"/>
      <rect x="281" y="482" width="17" height="284" rx="8.5"/>
      <rect x="306" y="482" width="16" height="298" rx="8"/>
      <rect x="330" y="482" width="17" height="308" rx="8.5"/>
      <rect x="355" y="482" width="16" height="316" rx="8"/>
      <rect x="379" y="482" width="17" height="322" rx="8.5"/>
      <rect x="404" y="482" width="16" height="326" rx="8"/>
      <rect x="428" y="482" width="17" height="328" rx="8.5"/>
      <rect x="453" y="482" width="16" height="328" rx="8"/>
      <rect x="477" y="482" width="17" height="326" rx="8.5"/>
      <rect x="502" y="482" width="16" height="324" rx="8"/>
      <rect x="526" y="482" width="17" height="320" rx="8.5"/>
      <rect x="551" y="482" width="16" height="316" rx="8"/>
      <rect x="575" y="482" width="17" height="308" rx="8.5"/>
      <rect x="600" y="482" width="16" height="298" rx="8"/>
      <rect x="624" y="482" width="17" height="286" rx="8.5"/>
      <rect x="649" y="482" width="16" height="270" rx="8"/>
      <rect x="673" y="482" width="17" height="250" rx="8.5"/>
      <rect x="698" y="482" width="16" height="226" rx="8"/>
      <rect x="722" y="482" width="17" height="200" rx="8.5"/>
      <rect x="747" y="482" width="16" height="172" rx="8"/>
      <rect x="771" y="482" width="17" height="142" rx="8.5"/>
      <rect x="796" y="482" width="16" height="112" rx="8"/>
      <rect x="820" y="482" width="17" height="84"  rx="8.5"/>
      <rect x="845" y="482" width="16" height="58"  rx="8"/>
      <rect x="869" y="482" width="17" height="36"  rx="8.5"/>
      <rect x="894" y="482" width="16" height="22"  rx="8"/>
      <rect x="918" y="482" width="14" height="14"  rx="7"/>
    </g>
  </g>
</svg>
